<?xml version="1.0" encoding="UTF-8"?>
<svg width="128px" height="128px" viewBox="0 0 64 64" xmlns="http://www.w3.org/2000/svg">
  <!-- Fox Head -->
  <circle cx="32" cy="32" r="24" fill="#FF9248" />

  <!-- Fox Ears -->
  <g>
    <polygon points="8,22 24,2 28,16" fill="#FF9248"/>
    <polygon points="56,22 40,2 36,16" fill="#FF9248"/>
    <!-- Inner Ears -->
    <polygon points="20,12 24,8 26,14" fill="#FFD1B3"/>
    <polygon points="44,12 40,8 38,14" fill="#FFD1B3"/>
  </g>

  <!-- Pirate Hat -->
  <g>
    <path d="M6 22 Q32 -4, 58 22 L54 28 Q32 8, 10 28 Z" fill="black" stroke="#333" stroke-width="2"/>
    <ellipse cx="32" cy="18" rx="6" ry="3" fill="white" stroke="black" stroke-width="1"/>
    <path d="M29 16 L35 20 M35 16 L29 20" stroke="black" stroke-width="1" />
  </g>

  <!-- Pirate Eyepatch & Strap -->
  <g>
    <ellipse cx="24" cy="28" rx="6" ry="6" fill="black" stroke="#222" stroke-width="1.5"/>
    <!-- <path d="M18 22 Q22 18, 32 22" stroke="black" stroke-width="2" fill="none" /> -->
    <!-- <path d="M18 28 Q10 18, 32 12 Q54 18, 46 28" stroke="black" stroke-width="2" fill="none" opacity="0.7"/> -->
  </g>
  <g>
    <!-- Right Eye -->
    <ellipse cx="40" cy="30" rx="2.2" ry="2.7" fill="#222" />
    <ellipse cx="40.7" cy="29.5" rx="0.7" ry="1" fill="#fff" opacity="0.7"/>
  </g>
  <!-- Fox Nose -->
  <ellipse cx="32" cy="40" rx="2" ry="1.5" fill="black" />
  <g>
    <path d="M24 44 Q32 52, 40 44" stroke="black" stroke-width="2.5" fill="none" />
  </g>

  <g>
    <!-- Cigarette -->
    <rect x="34" y="46" width="12" height="2" rx="1" fill="#f5f5dc" stroke="#888" stroke-width="0.5" />
    <!-- Cigarette tip (burning) -->
    <rect x="45.5" y="46" width="2.5" height="2" rx="1" fill="#ff6347" stroke="#b22222" stroke-width="0.5" />
    <!-- Smoke -->
    <path d="M48 46 Q52 42, 50 38 Q48 34, 52 32" stroke="#bbb" stroke-width="1" fill="none" opacity="0.7"/>
  </g>
</svg>
